<?xml version="1.0" encoding="utf-8"?>
<!-- Generator: Adobe Illustrator 28.2.0, SVG Export Plug-In . SVG Version: 6.00 Build 0)  -->
<svg version="1.1" id="Capa_1" xmlns="http://www.w3.org/2000/svg" xmlns:xlink="http://www.w3.org/1999/xlink" x="0px" y="0px"
	 viewBox="0 0 595.28 841.89" style="enable-background:new 0 0 595.28 841.89;" xml:space="preserve">
<style type="text/css">
	.st0{fill:#FFFFFF;stroke:#F9B233;stroke-width:6;stroke-miterlimit:10;}
	.st1{fill:#FFFFFF;stroke:#F9B233;stroke-width:5;stroke-miterlimit:10;}
</style>
<path class="st0" d="M559.6,441.19c0,141.93-114.38,256.99-255.49,256.99c-153.51,0-252.29-139.41-255.49-256.99
	c-2.28-83.73,44.22-145.14,58.77-162.83c6.32-7.68,81.49-96.22,196.72-94.16C426.19,186.38,559.6,289.66,559.6,441.19z"/>
<ellipse class="st1" cx="225.43" cy="399.35" rx="23.77" ry="46.22"/>
<ellipse class="st1" cx="394.03" cy="399.35" rx="23.77" ry="46.22"/>
<path class="st0" d="M155.14,492.89c4.52,23.61,12.74,41.3,19.01,52.53c6.84,12.25,14.53,26,30.1,38.2
	c13.02,10.2,25.04,14.23,39.61,19.1c25.25,8.45,47.13,9.44,53.51,9.62c19.77,0.55,21.66-0.3,40.03-4.21
	c18.76-3.99,35.4-5.58,49.47-13.36c16.28-9.02,32.01-22.78,34.44-25.47c12.73-14.09,18.23-27.97,22.18-38.2
	c3.74-9.7,8.21-24.38,9.51-42.98"/>
</svg>
